<svg xmlns="http://www.w3.org/2000/svg" viewBox="0 0 128.74 18.76"><defs><style>.cls-1{fill:#535573;}</style></defs><title>Asset 70</title><g id="Layer_2" data-name="Layer 2"><g id="Layer_10" data-name="Layer 10"><path d="M9.25,18.52H4.39V4.5H0v-4H13.63v4H9.25Z"/><path d="M26.61,18.52l-.88-3.37H19.88L19,18.52H13.63L19.5.45H26l5.94,18.07Zm-1.89-7.36-.78-2.95q-.27-1-.66-2.55c-.25-1-.42-1.79-.51-2.24-.07.42-.22,1.11-.43,2.07s-.7,2.85-1.45,5.67Z"/><path d="M50.08,9.5c0,3-.75,5.33-2.23,6.9s-3.66,2.36-6.52,2.36a8.52,8.52,0,0,1-6.49-2.37Q32.57,14,32.58,9.47t2.24-6.86Q37.07.26,41.35.25T47.86,2.6Q50.08,4.94,50.08,9.5ZM37.7,9.5q0,5.22,3.63,5.22a3.11,3.11,0,0,0,2.73-1.27A6.9,6.9,0,0,0,45,9.5a6.92,6.92,0,0,0-.91-4,3.07,3.07,0,0,0-2.7-1.29Q37.71,4.23,37.7,9.5Z"/><path class="cls-1" d="M54,18.25V.26h4.86V14.32h6.93v3.93Z"/><path class="cls-1" d="M78.74,18.25H68.06V.26H78.74v3.9H72.92V7h5.39v3.9H72.92v3.4h5.82Z"/><path class="cls-1" d="M88.48,7.71h7.76v9.7a21.33,21.33,0,0,1-6.95,1.08,8.41,8.41,0,0,1-6.43-2.41Q80.6,13.67,80.59,9.2a9,9,0,0,1,2.49-6.78A9.58,9.58,0,0,1,90,0a15.74,15.74,0,0,1,3.21.32,13.4,13.4,0,0,1,2.63.81L94.34,5a9.52,9.52,0,0,0-4.27-1,4.05,4.05,0,0,0-3.29,1.38,6,6,0,0,0-1.17,4,6,6,0,0,0,1.06,3.84,3.65,3.65,0,0,0,3,1.33,8.87,8.87,0,0,0,2-.21V11.47H88.48Z"/><path class="cls-1" d="M110.32,18.25l-.89-3.37h-5.84l-.91,3.37H97.34L103.21.18h6.48l5.94,18.07Zm-1.9-7.36-.77-2.95q-.27-1-.66-2.55c-.26-1-.43-1.79-.51-2.24-.07.42-.22,1.11-.44,2.07s-.7,2.85-1.44,5.67Z"/><path class="cls-1" d="M117,18.25V.26h4.86V14.32h6.93v3.93Z"/></g></g></svg>